<?xml version="1.0" encoding="UTF-8"?>
<svg id="Capa_1" data-name="Capa 1" xmlns="http://www.w3.org/2000/svg" viewBox="0 0 1920 542.2">
  <defs>
    <style>
      .cls-1, .cls-2, .cls-3 {
        stroke-width: 0px;
      }

      .cls-2 {
        fill: #999;
      }

      .cls-3 {
        fill: #ff5f00;
      }
    </style>
  </defs>
  <g>
    <path class="cls-2" d="m980.72,283.5c-9.36-102.28-90.8-154.17-184.52-154.17-120.35,0-196.03,88.75-196.03,212.82s83.59,200.05,196.03,200.05c100.21,0,176.59-59.41,188.13-164.69h-118.92c-5.76,42.11-26.67,66.92-69.92,66.92-51.91,0-72.79-51.88-72.79-102.28,0-54.15,10.81-115.03,79.27-115.03,31,0,59.85,23.3,59.85,56.38h118.9Z"/>
    <path class="cls-2" d="m1369.88,430.9v-170.71c0-110.55-85.78-130.86-174.45-130.86-43.23,0-85.04,6.77-118.92,27.08-33.87,20.3-56.22,53.39-58.38,104.53h114.61c5.75-32.34,25.94-48.89,61.26-48.89,25.21,0,59.1,11.28,59.1,40.6,0,24.08-11.54,30.85-32.46,36.12-85.03,18.03-217.65,9.01-217.65,135.34,0,80.47,55.49,118.08,127.56,118.08,45.42,0,91.55-12.79,123.26-48.13,2.17,12.77,2.17,24.81,7.21,36.86h123.26c-14.4-30.85-14.4-66.94-14.4-100.03Zm-193.19,32.34c-28.11,0-51.17-12.03-51.17-44.36s22.35-42.87,50.46-49.64c26.67-8.27,58.39-9.78,75.66-21.06,2.89,81.22-16.56,115.06-74.95,115.06Z"/>
    <path class="cls-2" d="m1650.36,140.62h-75.68V22.56h-122.54v118.07h-61.98v82.71h61.98v173.71c0,105.29,26.68,137.63,131.21,137.63,22.31,0,44.67-3.01,67.01-3.75v-94.03c-10.8,0-20.91,1.51-31.73,1.51-26.67,0-43.95-6.76-43.95-37.6v-177.48h75.68v-82.71Z"/>
    <path class="cls-3" d="m575.97,530.9v-108.28h-238.57c33.16-33.09,51.89-46.62,90.8-70.69,73.54-48.13,142.72-84.22,142.72-185.75C570.92,54.15,482.28,0,382.8,0c-124.7,0-205.42,87.99-197.48,218.08h114.6c0-57.16,18.73-106.05,83.61-106.05,39.64,0,64.85,24.08,64.85,65.44,0,35.34-27.37,60.92-65.58,87.24-39.64,26.3-87.93,52.63-131.18,91.73-49.73,45.13-77.84,107.54-78.55,174.46h402.9Z"/>
    <path class="cls-3" d="m7.89,178.2h122.54v352.71H7.89V178.2ZM69.15,0C30.96,0,0,30.96,0,69.15s30.96,69.15,69.15,69.15,69.15-30.96,69.15-69.15S107.35,0,69.15,0Z"/>
  </g>
  <path class="cls-1" d="m1849.61,119.11c0-13.71-8.75-22.24-25-22.24h-23.25v44.48h23.25c16.25,0,25-9.31,25-22.24m5,51.46l36,74.22h-43.5l-31.75-68.27h-14v68.27h-39.5V61.44h70.24c35,0,57.49,24.83,57.49,57.41,0,24.83-13.25,43.71-35,51.72m65.39-148.02h-193.97v338.9h193.97V22.56Z"/>
</svg>